# Blender v2.82 (sub 7) OBJ File: ''
# www.blender.org
mtllib shredder.mtl
o Plane
v -2.973286 0.189476 -0.148256
v -2.971880 0.195414 0.148265
v -2.270926 0.000000 0.740201
v 0.597739 0.000000 0.740201
v 1.793218 0.000000 0.740201
v 1.793218 0.000000 -0.740201
v 0.597739 0.000000 -0.740201
v -2.270926 0.000000 -0.740201
v -2.657269 0.063596 0.444308
v -2.656925 0.066120 0.148230
v -2.659174 0.053013 -0.148119
v -2.659338 0.055112 -0.444166
v -2.270926 0.000000 0.444121
v -2.270926 0.000000 0.148040
v -2.270926 0.000000 -0.148040
v -2.270926 0.000000 -0.444121
v 0.597739 0.000000 0.444121
v 0.597739 0.000000 0.148040
v 0.597739 0.000000 -0.148040
v 0.597739 0.000000 -0.444121
v 1.793218 0.000000 0.444121
v 1.793218 0.000000 0.148040
v 1.793218 0.000000 -0.148040
v 1.793218 0.000000 -0.444121
v -2.972024 0.194231 0.179968
v -2.453319 0.021780 0.740314
v -2.661390 0.057711 0.552465
v -2.749333 0.098786 0.444314
v -0.187180 0.000000 0.740201
v 0.597739 0.000000 0.607391
v 1.793218 0.000000 0.405113
v 1.562678 0.000000 0.444121
v -2.973439 0.186295 -0.207425
v -2.438864 0.022372 -0.740187
v -2.659096 0.053838 -0.553256
v -2.761024 0.093385 -0.444189
v 2.379864 0.088682 0.740209
v 2.339145 0.078479 -0.740327
v 2.372564 0.090517 0.444223
v 2.365823 0.094934 0.148149
v 2.357166 0.090549 -0.148144
v 2.347496 0.081470 -0.444176
vt 0.135379 0.800000
vt 0.200000 0.800000
vt 0.200000 0.873709
vt 0.400000 0.800000
vt 0.600000 0.800000
vt 0.600000 1.000000
vt 0.400000 1.000000
vt 0.800000 0.800000
vt 0.800000 1.000000
vt 0.141724 0.200000
vt 0.200000 0.126955
vt 0.200000 0.200000
vt 0.200000 0.400000
vt 0.000000 0.400000
vt 0.000000 0.378583
vt 0.200000 0.600000
vt 0.000000 0.600000
vt 0.308259 0.000000
vt 0.400000 0.000000
vt 0.400000 0.200000
vt 0.400000 0.400000
vt 0.400000 0.600000
vt 0.545276 0.000000
vt 0.600000 0.000000
vt 0.600000 0.089712
vt 0.600000 0.200000
vt 0.600000 0.400000
vt 0.600000 0.600000
vt 0.800000 0.000000
vt 0.800000 0.200000
vt 0.761432 0.200000
vt 0.800000 0.226349
vt 0.800000 0.400000
vt 0.800000 0.600000
vt 0.313379 1.000000
vt 0.000000 0.639981
vt 0.895579 0.600000
vt 0.893879 0.800000
vt 0.897162 0.400000
vt 0.898194 0.200000
vt 0.892489 1.000000
vt 0.899385 0.000000
vn 0.3522 0.9359 -0.0101
vn 0.0000 1.0000 0.0000
vn 0.3563 0.9322 0.0643
vn 0.3737 0.9274 0.0159
vn 0.3890 0.9207 -0.0320
vn 0.1448 0.9892 0.0235
vn 0.1656 0.9862 0.0043
vn 0.1520 0.9881 -0.0224
vn 0.1379 0.9904 0.0035
vn 0.1372 0.9905 -0.0044
vn 0.3842 0.9232 -0.0116
vn -0.1520 0.9883 -0.0127
vn -0.1611 0.9869 -0.0050
vn -0.1589 0.9872 0.0092
vn -0.1439 0.9896 -0.0030
vn -0.1519 0.9884 0.0049
usemtl None
s off
f 36/1/1 12/2/1 35/3/1
f 16/4/2 20/5/2 7/6/2 8/7/2
f 20/5/2 24/8/2 6/9/2 7/6/2
f 28/10/3 27/11/3 9/12/3
f 28/10/4 9/12/4 10/13/4 2/14/4 25/15/4
f 2/14/5 10/13/5 11/16/5 1/17/5
f 26/18/6 3/19/6 13/20/6 9/12/6 27/11/6
f 9/12/7 13/20/7 14/21/7 10/13/7
f 10/13/8 14/21/8 15/22/8 11/16/8
f 11/16/9 15/22/9 16/4/9 12/2/9
f 29/23/2 4/24/2 30/25/2
f 13/20/2 17/26/2 18/27/2 14/21/2
f 14/21/2 18/27/2 19/28/2 15/22/2
f 15/22/2 19/28/2 20/5/2 16/4/2
f 4/24/2 5/29/2 21/30/2 32/31/2 17/26/2 30/25/2
f 32/31/2 21/30/2 31/32/2
f 18/27/2 22/33/2 23/34/2 19/28/2
f 19/28/2 23/34/2 24/8/2 20/5/2
f 17/26/2 32/31/2 31/32/2 22/33/2 18/27/2
f 3/19/2 29/23/2 30/25/2 17/26/2 13/20/2
f 12/2/10 16/4/10 8/7/10 34/35/10 35/3/10
f 1/17/11 11/16/11 12/2/11 36/1/11 33/36/11
f 23/34/12 41/37/12 42/38/12 24/8/12
f 22/33/13 40/39/13 41/37/13 23/34/13
f 21/30/14 39/40/14 40/39/14 22/33/14 31/32/14
f 24/8/15 42/38/15 38/41/15 6/9/15
f 5/29/16 37/42/16 39/40/16 21/30/16
