# Blender v2.82 (sub 7) OBJ File: ''
# www.blender.org
mtllib slopes1.mtl
o Plane
v -17.596846 9.966294 10.598867
v 18.673872 -1.382869 10.583264
v -17.557180 9.535225 -10.671724
v 18.696468 0.000000 -10.576320
v -17.642853 9.724692 -7.127299
v -17.756807 9.391653 -3.550194
v -17.636250 9.877938 0.014668
v -17.691290 9.388597 3.544048
v -17.553699 9.597247 7.062091
v -11.927990 5.583646 10.630390
v -5.989052 4.475051 10.592716
v 0.000001 0.000000 10.576320
v 6.232157 0.000000 10.576320
v 12.464313 0.000000 10.576320
v 18.662790 -2.256146 7.063318
v 18.648821 -3.054383 3.542384
v 18.664492 -3.626579 -0.022941
v 18.666117 -3.437756 -3.593699
v 18.680067 -1.811791 -7.060100
v 12.464312 0.000000 -10.576320
v 6.232155 0.619472 -10.576320
v 0.119955 2.341426 -10.603234
v -6.029131 3.337432 -10.616973
v -11.534565 6.555613 -10.612639
v -11.817297 6.626856 7.038360
v -11.720933 6.823895 3.502466
v -11.745892 6.643366 0.038831
v -11.680513 7.196573 -3.536695
v -11.652183 6.573495 -7.010668
v -5.858902 4.643404 7.066858
v -6.041329 3.563774 3.490650
v -5.926456 3.781912 -0.059398
v -6.092814 3.063844 -3.569872
v -6.023419 3.616536 -7.118760
v 0.128296 2.274185 7.050152
v 0.043248 0.826121 3.527207
v 0.064882 1.146708 0.002208
v -0.004618 -0.075763 -3.546301
v 0.125534 2.333857 -7.050570
v 6.232157 1.371671 7.050879
v 6.232156 -1.176478 3.525439
v 6.169533 -2.588533 -0.011394
v 6.172685 -1.941480 -3.561677
v 6.232156 1.136628 -7.050880
v 12.465429 0.115361 7.051260
v 12.464313 -1.229507 3.525439
v 12.458322 -3.098345 -0.018521
v 12.454796 -1.543441 -3.557261
v 12.456762 -0.775382 -7.054170
vt 0.833333 0.833333
vt 1.000000 0.833333
vt 1.000000 1.000000
vt 0.833333 1.000000
vt 0.000000 0.833333
vt 0.166667 0.833333
vt 0.166667 1.000000
vt 0.000000 1.000000
vt 0.333333 0.833333
vt 0.333333 1.000000
vt 0.500000 0.833333
vt 0.500000 1.000000
vt 0.666667 0.833333
vt 0.666667 1.000000
vt 0.000000 0.000000
vt 0.166667 0.000000
vt 0.166667 0.166667
vt 0.000000 0.166667
vt 0.166667 0.333333
vt 0.000000 0.333333
vt 0.166667 0.500000
vt 0.000000 0.500000
vt 0.166667 0.666667
vt 0.000000 0.666667
vt 0.333333 0.000000
vt 0.333333 0.166667
vt 0.333333 0.333333
vt 0.333333 0.500000
vt 0.333333 0.666667
vt 0.500000 0.000000
vt 0.500000 0.166667
vt 0.500000 0.333333
vt 0.500000 0.500000
vt 0.500000 0.666667
vt 0.666667 0.000000
vt 0.666667 0.166667
vt 0.666667 0.333333
vt 0.666667 0.500000
vt 0.666667 0.666667
vt 0.833333 0.000000
vt 0.833333 0.166667
vt 0.833333 0.333333
vt 0.833333 0.500000
vt 0.833333 0.666667
vt 1.000000 0.000000
vt 1.000000 0.166667
vt 1.000000 0.333333
vt 1.000000 0.500000
vt 1.000000 0.666667
vn 0.0780 0.9357 0.3442
vn 0.4547 0.8906 -0.0129
vn 0.4846 0.8743 -0.0289
vn 0.1823 0.9825 -0.0381
vn 0.2319 0.9702 -0.0700
vn 0.1990 0.9793 0.0361
vn 0.5396 0.8370 0.0908
vn 0.4274 0.9040 -0.0040
vn 0.4389 0.8976 0.0415
vn 0.4132 0.9106 0.0053
vn 0.4052 0.9138 -0.0294
vn 0.2480 0.9536 0.1707
vn 0.4081 0.9054 -0.1173
vn 0.4700 0.8826 0.0108
vn 0.5223 0.8523 -0.0273
vn 0.5343 0.8453 -0.0010
vn 0.4734 0.8268 0.3037
vn 0.3690 0.8711 -0.3241
vn 0.4048 0.9112 0.0772
vn 0.4187 0.8720 -0.2537
vn 0.3125 0.8726 0.3753
vn 0.0648 0.8859 0.4592
vn 0.2011 0.8511 -0.4850
vn 0.4186 0.8972 -0.1411
vn 0.4135 0.9072 -0.0774
vn 0.1926 0.7694 0.6090
vn 0.0981 0.9737 0.2054
vn 0.0916 0.8718 -0.4813
vn 0.0405 0.9064 -0.4204
vn 0.0086 0.9550 0.2966
vn 0.1054 0.8707 0.4803
vn 0.2882 0.9520 -0.1028
vn 0.3090 0.9097 -0.2773
vn 0.1771 0.9309 -0.3194
vn 0.1869 0.9541 0.2340
vn 0.2185 0.9227 0.3177
usemtl None
s off
f 49/1/1 19/2/1 4/3/1 20/4/1
f 5/5/2 29/6/2 24/7/2 3/8/2
f 29/6/3 34/9/3 23/10/3 24/7/3
f 34/9/4 39/11/4 22/12/4 23/10/4
f 39/11/5 44/13/5 21/14/5 22/12/5
f 44/13/6 49/1/6 20/4/6 21/14/6
f 1/15/7 10/16/7 25/17/7 9/18/7
f 9/18/8 25/17/8 26/19/8 8/20/8
f 8/20/9 26/19/9 27/21/9 7/22/9
f 7/22/10 27/21/10 28/23/10 6/24/10
f 6/24/11 28/23/11 29/6/11 5/5/11
f 10/16/12 11/25/12 30/26/12 25/17/12
f 25/17/13 30/26/13 31/27/13 26/19/13
f 26/19/14 31/27/14 32/28/14 27/21/14
f 27/21/15 32/28/15 33/29/15 28/23/15
f 28/23/16 33/29/16 34/9/16 29/6/16
f 11/25/17 12/30/17 35/31/17 30/26/17
f 30/26/18 35/31/18 36/32/18 31/27/18
f 31/27/19 36/32/19 37/33/19 32/28/19
f 32/28/20 37/33/20 38/34/20 33/29/20
f 33/29/21 38/34/21 39/11/21 34/9/21
f 12/30/22 13/35/22 40/36/22 35/31/22
f 35/31/23 40/36/23 41/37/23 36/32/23
f 36/32/24 41/37/24 42/38/24 37/33/24
f 37/33/25 42/38/25 43/39/25 38/34/25
f 38/34/26 43/39/26 44/13/26 39/11/26
f 13/35/27 14/40/27 45/41/27 40/36/27
f 40/36/28 45/41/28 46/42/28 41/37/28
f 41/37/29 46/42/29 47/43/29 42/38/29
f 42/38/30 47/43/30 48/44/30 43/39/30
f 43/39/31 48/44/31 49/1/31 44/13/31
f 14/40/32 2/45/32 15/46/32 45/41/32
f 45/41/33 15/46/33 16/47/33 46/42/33
f 46/42/34 16/47/34 17/48/34 47/43/34
f 47/43/35 17/48/35 18/49/35 48/44/35
f 48/44/36 18/49/36 19/2/36 49/1/36
