# Blender v2.82 (sub 7) OBJ File: ''
# www.blender.org
mtllib slopes0.mtl
o Plane
v -9.778621 1.385083 10.478247
v 10.212058 0.105295 10.212058
v -7.896655 4.698647 -11.809958
v 10.212058 0.000000 -10.212058
v -7.439662 6.917690 -7.823277
v -8.607427 9.257633 -1.164428
v -8.389617 5.500650 8.101072
v -4.780478 1.460291 11.288337
v 0.238643 1.372245 10.508596
v 5.106029 0.300213 10.212058
v 10.212058 0.000000 5.106029
v 10.212058 0.000000 0.000000
v 10.212058 0.000000 -5.106029
v 5.167473 0.601788 -10.314569
v 0.512308 1.433416 -10.610383
v -3.779122 2.706583 -11.495689
v -3.512789 5.468247 7.939488
v -3.897263 8.331636 0.141232
v -3.953569 3.536479 -6.253808
v 0.708149 2.869495 5.871480
v -0.347751 4.193343 0.027628
v 0.676879 2.567890 -5.637573
v 5.290807 1.540696 5.223090
v 5.657201 1.910419 0.046333
v 5.333546 1.263225 -5.282029
vt 0.750000 0.750000
vt 1.000000 0.750000
vt 1.000000 1.000000
vt 0.750000 1.000000
vt 0.000000 0.750000
vt 0.250000 0.750000
vt 0.250000 1.000000
vt 0.000000 1.000000
vt 0.500000 0.750000
vt 0.500000 1.000000
vt 0.000000 0.000000
vt 0.250000 0.000000
vt 0.250000 0.250000
vt 0.000000 0.250000
vt 0.250000 0.500000
vt 0.000000 0.500000
vt 0.500000 0.000000
vt 0.500000 0.250000
vt 0.500000 0.500000
vt 0.750000 0.000000
vt 0.750000 0.250000
vt 0.750000 0.500000
vt 1.000000 0.000000
vt 1.000000 0.250000
vt 1.000000 0.500000
vn 0.1861 0.9802 -0.0670
vn 0.5994 0.7544 -0.2676
vn 0.2683 0.9461 -0.1817
vn 0.2319 0.9561 -0.1793
vn -0.0556 0.5873 0.8074
vn 0.0502 0.9317 0.3597
vn 0.5307 0.7619 -0.3713
vn 0.3871 0.7176 0.5789
vn 0.6715 0.7253 0.1517
vn 0.5078 0.7767 -0.3727
vn 0.2626 0.9233 0.2804
vn 0.3270 0.9369 0.1235
vn 0.3196 0.9318 -0.1722
vn 0.1707 0.9788 0.1132
vn 0.3425 0.9384 0.0459
vn 0.3190 0.9453 -0.0685
usemtl None
s off
f 25/1/1 13/2/1 4/3/1 14/4/1
f 5/5/2 19/6/2 16/7/2 3/8/2
f 19/6/3 22/9/3 15/10/3 16/7/3
f 22/9/4 25/1/4 14/4/4 15/10/4
f 1/11/5 8/12/5 17/13/5 7/14/5
f 7/14/6 17/13/6 18/15/6 6/16/6
f 6/16/7 18/15/7 19/6/7 5/5/7
f 8/12/8 9/17/8 20/18/8 17/13/8
f 17/13/9 20/18/9 21/19/9 18/15/9
f 18/15/10 21/19/10 22/9/10 19/6/10
f 9/17/11 10/20/11 23/21/11 20/18/11
f 20/18/12 23/21/12 24/22/12 21/19/12
f 21/19/13 24/22/13 25/1/13 22/9/13
f 10/20/14 2/23/14 11/24/14 23/21/14
f 23/21/15 11/24/15 12/25/15 24/22/15
f 24/22/16 12/25/16 13/2/16 25/1/16
