# Blender v2.82 (sub 7) OBJ File: ''
# www.blender.org
mtllib slopes2.mtl
o Plane
v 18.349709 -4.205752 -10.583861
v -16.863482 8.139336 -10.583267
v 18.363905 -3.222902 11.014183
v -16.191618 9.348235 10.576317
v 15.457287 -8.723871 8.238156
v 15.505255 -9.632311 4.465648
v 14.314565 -13.047781 0.958017
v 14.273432 -12.253036 -3.549855
v 15.775113 -9.051609 -7.458942
v 13.440468 -0.474696 -10.641931
v 7.229819 0.478543 -10.580613
v 0.862809 1.653806 -10.587277
v -4.796431 4.232539 -10.530207
v -10.812214 6.153959 -10.614666
v -17.290524 7.377514 -7.063320
v -17.677544 6.679237 -3.542386
v -17.977213 6.191536 0.022939
v -17.884209 6.355874 3.593696
v -17.083307 7.770977 7.060098
v -8.823369 9.896958 10.479698
v -2.438133 8.355250 10.463183
v 3.741491 6.734787 10.489341
v 9.861088 5.424786 10.356677
v 13.459584 0.343068 10.708762
v 10.316083 -6.847585 -7.227161
v 8.953428 -9.484354 -3.459099
v 8.857382 -10.170668 0.530342
v 10.573815 -5.644716 4.056185
v 10.704657 -4.771091 7.847073
v 4.060955 -5.556689 -7.353307
v 3.082614 -7.533136 -3.487574
v 3.284851 -7.104716 0.431155
v 5.182450 -3.359161 3.996190
v 6.877666 -0.072825 7.537465
v -2.000378 -3.878567 -7.274743
v -1.934899 -3.574163 -3.565664
v -2.403586 -4.518174 0.250149
v -0.455994 -0.885252 3.913366
v 1.415611 2.575574 7.389292
v -7.260892 -0.055133 -7.253479
v -7.520298 -0.709004 -3.542861
v -7.518916 -0.837989 0.117030
v -6.643898 0.545253 3.727109
v -5.686938 1.859479 7.632556
v -11.704141 4.565241 -7.088151
v -11.876585 4.287682 -3.540678
v -13.359104 1.628266 0.100646
v -12.517141 2.997691 3.692677
v -13.087496 1.568442 7.675531
vt 0.833333 0.833333
vt 1.000000 0.833333
vt 1.000000 1.000000
vt 0.833333 1.000000
vt 0.000000 0.833333
vt 0.166667 0.833333
vt 0.166667 1.000000
vt 0.000000 1.000000
vt 0.333333 0.833333
vt 0.333333 1.000000
vt 0.500000 0.833333
vt 0.500000 1.000000
vt 0.666667 0.833333
vt 0.666667 1.000000
vt 0.000000 0.000000
vt 0.166667 0.000000
vt 0.166667 0.166667
vt 0.000000 0.166667
vt 0.166667 0.333333
vt 0.000000 0.333333
vt 0.166667 0.500000
vt 0.000000 0.500000
vt 0.166667 0.666667
vt 0.000000 0.666667
vt 0.333333 0.000000
vt 0.333333 0.166667
vt 0.333333 0.333333
vt 0.333333 0.500000
vt 0.333333 0.666667
vt 0.500000 0.000000
vt 0.500000 0.166667
vt 0.500000 0.333333
vt 0.500000 0.500000
vt 0.500000 0.666667
vt 0.666667 0.000000
vt 0.666667 0.166667
vt 0.666667 0.333333
vt 0.666667 0.500000
vt 0.666667 0.666667
vt 0.833333 0.000000
vt 0.833333 0.166667
vt 0.833333 0.333333
vt 0.833333 0.500000
vt 0.833333 0.666667
vt 1.000000 0.000000
vt 1.000000 0.166667
vt 1.000000 0.333333
vt 1.000000 0.500000
vt 1.000000 0.666667
vn 0.2509 0.4245 -0.8700
vn 0.3083 0.3127 -0.8984
vn 0.4074 0.2499 -0.8784
vn 0.1558 0.4525 -0.8780
vn 0.0183 0.4790 -0.8777
vn 0.0271 0.3432 -0.9389
vn 0.2407 0.3946 0.8867
vn 0.3355 0.6853 0.6463
vn 0.4546 0.8770 0.1558
vn 0.4038 0.5193 -0.7532
vn 0.6323 0.7525 -0.1842
vn 0.0747 0.4409 0.8944
vn 0.2088 0.8073 0.5519
vn 0.4012 0.9157 0.0245
vn 0.2804 0.5512 -0.7859
vn 0.5309 0.6735 -0.5143
vn 0.1076 0.4462 0.8884
vn 0.4398 0.8644 0.2438
vn 0.5189 0.8516 0.0746
vn 0.2822 0.5923 -0.7547
vn 0.2962 0.6088 -0.7359
vn 0.2617 0.4358 0.8611
vn 0.5243 0.8498 0.0537
vn 0.5145 0.8437 0.1533
vn 0.3378 0.7084 -0.6197
vn 0.0423 0.8314 -0.5541
vn 0.3801 0.5989 0.7049
vn 0.7327 0.6682 0.1293
vn 0.5426 0.7421 0.3935
vn 0.3552 0.8418 -0.4064
vn 0.1607 0.9870 0.0065
vn 0.3578 0.8637 0.3551
vn 0.4108 0.8982 0.1565
vn 0.4941 0.7453 0.4477
vn 0.6057 0.7582 -0.2414
vn 0.7151 0.6987 -0.0208
usemtl None
s off
f 49/1/1 19/2/1 4/3/1 20/4/1
f 5/5/2 29/6/2 24/7/2 3/8/2
f 29/6/3 34/9/3 23/10/3 24/7/3
f 34/9/4 39/11/4 22/12/4 23/10/4
f 39/11/5 44/13/5 21/14/5 22/12/5
f 44/13/6 49/1/6 20/4/6 21/14/6
f 1/15/7 10/16/7 25/17/7 9/18/7
f 9/18/8 25/17/8 26/19/8 8/20/8
f 8/20/9 26/19/9 27/21/9 7/22/9
f 7/22/10 27/21/10 28/23/10 6/24/10
f 6/24/11 28/23/11 29/6/11 5/5/11
f 10/16/12 11/25/12 30/26/12 25/17/12
f 25/17/13 30/26/13 31/27/13 26/19/13
f 26/19/14 31/27/14 32/28/14 27/21/14
f 27/21/15 32/28/15 33/29/15 28/23/15
f 28/23/16 33/29/16 34/9/16 29/6/16
f 11/25/17 12/30/17 35/31/17 30/26/17
f 30/26/18 35/31/18 36/32/18 31/27/18
f 31/27/19 36/32/19 37/33/19 32/28/19
f 32/28/20 37/33/20 38/34/20 33/29/20
f 33/29/21 38/34/21 39/11/21 34/9/21
f 12/30/22 13/35/22 40/36/22 35/31/22
f 35/31/23 40/36/23 41/37/23 36/32/23
f 36/32/24 41/37/24 42/38/24 37/33/24
f 37/33/25 42/38/25 43/39/25 38/34/25
f 38/34/26 43/39/26 44/13/26 39/11/26
f 13/35/27 14/40/27 45/41/27 40/36/27
f 40/36/28 45/41/28 46/42/28 41/37/28
f 41/37/29 46/42/29 47/43/29 42/38/29
f 42/38/30 47/43/30 48/44/30 43/39/30
f 43/39/31 48/44/31 49/1/31 44/13/31
f 14/40/32 2/45/32 15/46/32 45/41/32
f 45/41/33 15/46/33 16/47/33 46/42/33
f 46/42/34 16/47/34 17/48/34 47/43/34
f 47/43/35 17/48/35 18/49/35 48/44/35
f 48/44/36 18/49/36 19/2/36 49/1/36
